<svg version="1.1" id="Layer_1" xmlns="http://www.w3.org/2000/svg" xmlns:xlink="http://www.w3.org/1999/xlink" x="0px" y="0px"
	 width="100%" viewBox="0 0 400 400" enable-background="new 0 0 400 400" xml:space="preserve">
<path fill="#FF7F27" opacity="1.000000" stroke="none" 
	d="
M1.000000,400.000000 
	C1.000000,267.071716 1.000000,134.143402 1.000000,1.000000 
	C133.689911,1.000000 266.379944,1.000000 399.684265,1.183501 
	C400.510712,1.602011 400.744507,1.813010 401.000000,2.000000 
	C401.000000,134.356659 401.000000,266.713318 400.816498,399.684265 
	C400.397980,400.510712 400.186981,400.744537 400.000000,401.000000 
	C267.643341,401.000000 135.286682,401.000000 2.315754,400.816498 
	C1.489284,400.398041 1.255457,400.187042 1.000000,400.000000 
M315.891296,279.612701 
	C313.045868,276.996979 310.176270,274.406982 307.359253,271.761017 
	C295.619690,260.734344 281.621338,254.257736 265.630890,254.144165 
	C212.166199,253.764359 158.697113,253.993713 105.229713,254.007355 
	C97.482079,254.009323 90.995010,257.272400 85.315842,262.225525 
	C76.177353,270.195740 72.883774,280.163208 72.710953,292.414764 
	C72.472191,309.341583 90.036194,327.123108 107.361710,327.078827 
	C180.316757,326.892365 253.272537,327.000000 326.228058,327.000000 
	C328.009583,327.000000 329.791138,327.000000 331.903351,327.000000 
	C332.705872,308.970306 326.764984,293.853790 315.891296,279.612701 
M89.007645,79.458786 
	C84.483902,84.224739 78.776947,88.341972 75.722282,93.913383 
	C71.467751,101.673256 71.434410,111.170670 73.512466,119.444801 
	C77.453415,135.136353 91.363907,147.005966 109.027924,147.002991 
	C159.665817,146.994476 210.303787,147.033646 260.941528,146.943024 
	C265.525208,146.934799 270.234497,146.658020 274.668701,145.598709 
	C295.389832,140.648514 311.616333,129.140015 322.522461,110.788414 
	C329.121552,99.684189 332.706848,87.573822 331.806030,74.000000 
	C329.475586,74.000000 327.511536,74.000000 325.547485,74.000000 
	C252.922073,74.000000 180.296616,74.040520 107.671364,73.931931 
	C101.037628,73.922012 95.040504,75.277023 89.007645,79.458786 
M78.912727,179.449997 
	C73.348793,186.294861 73.186600,194.351593 72.841415,202.716568 
	C72.144211,219.612106 90.182343,237.088196 107.110565,237.044281 
	C155.605804,236.918457 204.101578,236.999985 252.597137,236.999969 
	C254.343063,236.999969 256.088989,236.999969 258.300171,236.999969 
	C257.968018,231.736740 258.234772,227.174927 257.311310,222.868332 
	C253.528152,205.225784 245.129517,190.263794 230.608078,179.113144 
	C219.075180,170.257294 206.400940,164.133331 191.566635,164.044891 
	C164.903366,163.885910 138.225967,164.485397 111.579391,163.799637 
	C97.810097,163.445297 87.351860,168.202209 78.912727,179.449997 
z"/>
<path fill="#FF7F27" opacity="1.000000" stroke="none" 
	d="
M401.000000,1.500000 
	C400.744507,1.813010 400.510712,1.602011 400.149292,1.183501 
	C400.333344,1.000000 400.666656,1.000000 401.000000,1.500000 
z"/>
<path fill="#FF7F27" opacity="1.000000" stroke="none" 
	d="
M1.000000,400.500000 
	C1.255457,400.187042 1.489284,400.398041 1.850741,400.816498 
	C1.666667,401.000000 1.333333,401.000000 1.000000,400.500000 
z"/>
<path fill="#FF7F27" opacity="1.000000" stroke="none" 
	d="
M400.500000,401.000000 
	C400.186981,400.744537 400.397980,400.510712 400.816498,400.149261 
	C401.000000,400.333344 401.000000,400.666656 400.500000,401.000000 
z"/>
<path fill="#FFFFFF" opacity="1.000000" stroke="none" 
	d="
M315.978973,279.974152 
	C326.764984,293.853790 332.705872,308.970306 331.903351,327.000000 
	C329.791138,327.000000 328.009583,327.000000 326.228058,327.000000 
	C253.272537,327.000000 180.316757,326.892365 107.361710,327.078827 
	C90.036194,327.123108 72.472191,309.341583 72.710953,292.414764 
	C72.883774,280.163208 76.177353,270.195740 85.315842,262.225525 
	C90.995010,257.272400 97.482079,254.009323 105.229713,254.007355 
	C158.697113,253.993713 212.166199,253.764359 265.630890,254.144165 
	C281.621338,254.257736 295.619690,260.734344 307.359253,271.761017 
	C310.176270,274.406982 313.045868,276.996979 315.978973,279.974152 
z"/>
<path fill="#FFFFFF" opacity="1.000000" stroke="none" 
	d="
M89.282944,79.208763 
	C95.040504,75.277023 101.037628,73.922012 107.671364,73.931931 
	C180.296616,74.040520 252.922073,74.000000 325.547485,74.000000 
	C327.511536,74.000000 329.475586,74.000000 331.806030,74.000000 
	C332.706848,87.573822 329.121552,99.684189 322.522461,110.788414 
	C311.616333,129.140015 295.389832,140.648514 274.668701,145.598709 
	C270.234497,146.658020 265.525208,146.934799 260.941528,146.943024 
	C210.303787,147.033646 159.665817,146.994476 109.027924,147.002991 
	C91.363907,147.005966 77.453415,135.136353 73.512466,119.444801 
	C71.434410,111.170670 71.467751,101.673256 75.722282,93.913383 
	C78.776947,88.341972 84.483902,84.224739 89.282944,79.208763 
z"/>
<path fill="#FFFFFF" opacity="1.000000" stroke="none" 
	d="
M78.985748,179.090469 
	C87.351860,168.202209 97.810097,163.445297 111.579391,163.799637 
	C138.225967,164.485397 164.903366,163.885910 191.566635,164.044891 
	C206.400940,164.133331 219.075180,170.257294 230.608078,179.113144 
	C245.129517,190.263794 253.528152,205.225784 257.311310,222.868332 
	C258.234772,227.174927 257.968018,231.736740 258.300171,236.999969 
	C256.088989,236.999969 254.343063,236.999969 252.597137,236.999969 
	C204.101578,236.999985 155.605804,236.918457 107.110565,237.044281 
	C90.182343,237.088196 72.144211,219.612106 72.841415,202.716568 
	C73.186600,194.351593 73.348793,186.294861 78.985748,179.090469 
z"/>
</svg>